<svg class="ldi-ksapi5" width="100%" height="100%" xmlns="http://www.w3.org/2000/svg" xmlns:xlink="http://www.w3.org/1999/xlink" viewBox="0 0 100 100" preserveAspectRatio="xMidYMid"><!--?xml version="1.0" encoding="utf-8"?--><!--Generator: Adobe Illustrator 21.0.0, SVG Export Plug-In . SVG Version: 6.00 Build 0)--><svg version="1.1" id="Layer_1" xmlns="http://www.w3.org/2000/svg" xmlns:xlink="http://www.w3.org/1999/xlink" x="0px" y="0px" viewBox="0 0 100 100" style="transform-origin: 50px 50px 0px;" xml:space="preserve"><g style="transform-origin: 50px 50px 0px;"><g style="transform-origin: 50px 50px 0px; transform: scale(0.6);"><g class="" style="transform-origin: 50px 50px 0px; animation-duration: 1s; animation-delay: -1s; animation-direction: normal;"><g><g style="transform-origin: 50px 50px 0px;"><g><g style="transform-origin: 50px 50px 0px; animation-duration: 2.9s; animation-delay: 0s; animation-direction: normal;" class="ld ldt-zoom-in"><path style="fill: none; stroke: rgb(255, 78, 0); stroke-width: 3; stroke-linecap: round; stroke-linejoin: round; stroke-miterlimit: 10;" d=" M44.751,71.627L45,68.014c-0.023-0.626-0.274-1.221-0.706-1.674l-6.626-6.948c-0.483-0.507-1.153-0.794-1.854-0.794h-3.948 c-0.998,0-1.807-0.809-1.807-1.807v-2.843c2.272-1.076,3.848-3.384,3.848-6.065v-6.854c0-3.675-2.98-6.655-6.655-6.655h-4.506 c-3.675,0-6.655,2.98-6.655,6.655v6.854c0,2.681,1.576,4.989,3.848,6.065v2.843c0,0.998-0.809,1.807-1.807,1.807h-3.948 c-0.7,0-1.37,0.287-1.854,0.794L5.706,66.34C5.274,66.793,5.023,67.388,5,68.014l0.249,3.613" stroke="#ff4e00"></path></g><g style="transform-origin: 50px 50px 0px; animation-duration: 2.9s; animation-delay: 0.126087s; animation-direction: normal;" class="ld ldt-zoom-in"><path style="fill: none; stroke: rgb(255, 78, 0); stroke-width: 3; stroke-linecap: round; stroke-linejoin: round; stroke-miterlimit: 10;" d=" M55.249,71.627L55,68.014c0.023-0.626,0.274-1.221,0.706-1.674l6.626-6.948c0.483-0.507,1.153-0.794,1.854-0.794h3.948 c0.998,0,1.807-0.809,1.807-1.807v-2.843c-2.272-1.076-3.848-3.384-3.848-6.065v-6.854c0-3.675,2.98-6.655,6.655-6.655h4.506 c3.675,0,6.655,2.98,6.655,6.655v6.854c0,2.681-1.576,4.989-3.848,6.065v2.843c0,0.998,0.809,1.807,1.807,1.807h3.948 c0.7,0,1.37,0.287,1.854,0.794l6.625,6.948c0.432,0.453,0.683,1.049,0.706,1.674l-0.249,3.613" stroke="#ff4e00"></path></g></g></g><g style="transform-origin: 50px 50px 0px;"><g><g style="transform-origin: 50px 50px 0px;"><g><g style="transform-origin: 50px 50px 0px;"><g><g style="transform-origin: 50px 50px 0px; animation-duration: 2.9s; animation-delay: 0.252174s; animation-direction: normal;" class="ld ldt-zoom-in"><path style="fill: none; stroke-width: 3; stroke-linecap: round; stroke-linejoin: round; stroke: rgb(255, 0, 0);" d="M76.37,74.001 C70.468,82.178,60.855,87.5,50,87.5c-8.583,0-16.389-3.327-22.198-8.762" stroke="#ff0000"></path></g><g style="transform-origin: 50px 50px 0px;"><g><g style="transform-origin: 50px 50px 0px; animation-duration: 2.9s; animation-delay: 0.378261s; animation-direction: normal;" class="ld ldt-zoom-in"><polygon style="fill: rgb(255, 0, 0);" points="23.117,84.297 33.926,74.514 23.631,74.002 				" fill="#ff0000"></polygon></g></g></g></g></g></g></g><g style="transform-origin: 50px 50px 0px;"><g><g style="transform-origin: 50px 50px 0px;"><g><g style="transform-origin: 50px 50px 0px; animation-duration: 2.9s; animation-delay: 0.504348s; animation-direction: normal;" class="ld ldt-zoom-in"><path style="fill: none; stroke-width: 3; stroke-linecap: round; stroke-linejoin: round; stroke: rgb(255, 0, 0);" d="M23.633,25.995 C29.536,17.82,39.147,12.5,50,12.5c8.583,0,16.389,3.327,22.198,8.762" stroke="#ff0000"></path></g><g style="transform-origin: 50px 50px 0px;"><g><g style="transform-origin: 50px 50px 0px; animation-duration: 2.9s; animation-delay: 0.630435s; animation-direction: normal;" class="ld ldt-zoom-in"><polygon style="fill: rgb(255, 0, 0);" points="76.883,15.703 66.074,25.486 76.369,25.998 				" fill="#ff0000"></polygon></g></g></g></g></g></g></g></g></g><metadata xmlns:d="https://loading.io/stock/" style="transform-origin: 50px 50px 0px; animation-duration: 2.9s; animation-delay: 0.756522s; animation-direction: normal;" class="ld ldt-zoom-in">
<d:name style="transform-origin: 50px 50px 0px; animation-duration: 2.9s; animation-delay: 0.882609s; animation-direction: normal;" class="ld ldt-zoom-in">exchange</d:name>
<d:tags style="transform-origin: 50px 50px 0px; animation-duration: 2.9s; animation-delay: 1.0087s; animation-direction: normal;" class="ld ldt-zoom-in">exchange,benefit,refresh,give and take,share,community,switch account,recycle</d:tags>
<d:license style="transform-origin: 50px 50px 0px; animation-duration: 2.9s; animation-delay: 1.13478s; animation-direction: normal;" class="ld ldt-zoom-in">cc-by</d:license>
<d:slug style="transform-origin: 50px 50px 0px; animation-duration: 2.9s; animation-delay: 1.26087s; animation-direction: normal;" class="ld ldt-zoom-in">ksapi5</d:slug>
</metadata></g></g></g></g><style type="text/css" style="transform-origin: 50px 50px 0px; animation-duration: 2.9s; animation-delay: 1.38696s; animation-direction: normal;" class="ld ldt-zoom-in">path,ellipse,circle,rect,polygon,polyline,line { stroke-width: 0; }@keyframes ldt-zoom-in {
  0%, 20%, 100% {
    animation-timing-function: cubic-bezier(0, 0.5, 0.5, 1);
  }
  0% {
    -webkit-transform: scale(0);
    transform: scale(0);
  }
  100% {
    -webkit-transform: scale(1);
    transform: scale(1);
  }
}
@-webkit-keyframes ldt-zoom-in {
  0%, 20%, 100% {
    animation-timing-function: cubic-bezier(0, 0.5, 0.5, 1);
  }
  0% {
    -webkit-transform: scale(0);
    transform: scale(0);
  }
  100% {
    -webkit-transform: scale(1);
    transform: scale(1);
  }
}
.ldt-zoom-in {
  -webkit-transform: scale(0);
  transform: scale(0);
  -webkit-animation: ldt-zoom-in 1s forwards;
  animation: ldt-zoom-in 1s forwards;
}
</style></svg></svg>